<?xml version="1.0" encoding="utf-8"?>
<!-- Generator: Adobe Illustrator 15.0.2, SVG Export Plug-In . SVG Version: 6.00 Build 0)  -->
<!DOCTYPE svg PUBLIC "-//W3C//DTD SVG 1.1//EN" "http://www.w3.org/Graphics/SVG/1.1/DTD/svg11.dtd">
<svg version="1.1" id="Vrstva_1" xmlns="http://www.w3.org/2000/svg" xmlns:xlink="http://www.w3.org/1999/xlink" x="0px" y="0px"
	 width="841.89px" height="595.28px" viewBox="0 0 841.89 595.28" enable-background="new 0 0 841.89 595.28" xml:space="preserve">
<g>
	<g>
		<path fill="#13235B" d="M503.063,278.886l-0.076,0.723c-0.01,0.092-0.937,9.204-0.49,19.543
			c0.48,11.16,9.404,19.757,17.493,23.021l0.312,0.125l0.313-0.116c8.235-3.072,17.114-12.158,17.344-22.95
			c0.219-10.235-0.31-19.494-0.314-19.587l-0.044-0.759H503.063z M536.016,280.494c0.094,1.906,0.326,7.229,0.326,13.604
			c0,1.646-0.016,3.358-0.054,5.101c-0.213,9.956-8.324,18.361-15.963,21.352c-7.533-3.165-15.715-11.148-16.16-21.466
			c-0.085-1.98-0.119-3.917-0.119-5.75c0-6.146,0.384-11.092,0.537-12.84C505.975,280.494,534.576,280.494,536.016,280.494z"/>
	</g>
	<g>
		<path fill="#13235B" d="M522.729,281.919c-0.016,0.001-1.609,0.191-2.415,0.191l-3.847-0.213l0.571,1.145
			c0.009,0.018,0.877,1.788,0.986,5.465c-3.449-0.05-5.842-1.067-5.866-1.078l-1.27-0.555l0.188,1.33
			c0.001,0.013,0.193,1.372,0.193,2.304c0,0.936-0.193,2.481-0.195,2.499l-0.194,1.543l1.374-0.831c0.018-0.011,1.722-1,5.635-0.951
			c0,0.844,0,2.366,0,3.202c-4.151,0.119-7.316-0.951-7.35-0.964l-1.162-0.404l0.134,1.183c0.003,0.014,0.154,1.359,0.154,2.227
			l-0.225,3.743l1.112-0.39c0.035-0.015,3.22-1.156,7.2-0.991c0.004,0.192,0.006,0.407,0.006,0.661c0,1.167-0.055,2.886-0.32,4.301
			l1.515,0.264c0.479-2.542,0.325-5.833,0.318-5.972l-0.031-0.65l-0.674-0.053c-3.225-0.26-5.993,0.314-7.459,0.714
			c0.048-0.782,0.098-1.627,0.098-1.627c0-0.399-0.03-0.865-0.062-1.284c1.47,0.372,4.237,0.906,7.566,0.7l0.72-0.045v-6.045
			l-0.733-0.033c-2.888-0.128-4.813,0.262-5.963,0.625c0.041-0.473,0.077-0.994,0.077-1.421c0-0.416-0.034-0.879-0.074-1.303
			c1.263,0.379,3.424,0.86,6.105,0.782l0.745-0.021v-0.721c0-2.77-0.406-4.646-0.742-5.733c0.728,0.039,1.47,0.081,1.47,0.081
			c0.396,0,0.923-0.041,1.405-0.082c-0.31,1.092-0.677,2.96-0.677,5.734v0.732l0.761,0.009c2.663,0.03,4.801-0.431,6.045-0.789
			c-0.036,0.409-0.068,0.857-0.068,1.291c0,0.449,0.027,0.958,0.06,1.421c-1.106-0.35-2.966-0.711-5.898-0.606l-0.742,0.026v6.077
			l0.748,0.021c3.454,0.102,6.12-0.447,7.544-0.831c-0.033,0.478-0.066,1.026-0.066,1.523c0,0.518,0.034,1.124,0.069,1.64
			c-1.479-0.428-4.24-1.042-7.42-0.837l-0.664,0.042l-0.051,0.639c-0.012,0.142-0.283,3.516,0.199,6.07l1.516-0.265
			c-0.205-1.081-0.261-2.355-0.261-3.423c0-0.638,0.021-1.2,0.04-1.608c3.955-0.1,7.177,1.116,7.211,1.129l1.17,0.454l-0.116-1.212
			c-0.001-0.016-0.152-1.574-0.152-2.629c0-1.052,0.149-2.474,0.151-2.488l0.129-1.208l-1.176,0.443
			c-0.029,0.01-2.964,1.094-7.331,1.09c0-0.844,0-2.343,0-3.186c4.001-0.029,5.515,0.909,5.528,0.921l1.355,0.875l-0.151-1.559
			c0-0.015-0.151-1.503-0.151-2.52c0-1,0.188-2.254,0.189-2.268l0.197-1.309l-1.265,0.521c-0.025,0.013-2.39,0.956-5.84,1.055
			c0.104-3.739,0.911-5.5,0.919-5.518l0.587-1.215L522.729,281.919z"/>
	</g>
	<g>
		<path fill="#13235B" d="M514.809,307.732c-1.033-0.859-2.585-1.574-4.422-0.896c-2.33,0.86-3.54,3.934-3.591,4.064l-0.14,0.361
			l0.224,0.319c4.207,6.027,10.247,9.467,13.152,10.549l0.281,0.105l0.282-0.105c3.792-1.412,9.165-4.816,12.877-10.134l0.178-0.256
			l-0.059-0.303c-0.03-0.157-0.79-3.861-3.807-4.697c-1.797-0.498-3.241,0.294-4.146,1.045c-0.687-1.751-2.279-3.794-5.325-3.794
			C517.173,303.992,515.523,306.007,514.809,307.732z M515.946,309.315c0.024-0.156,0.674-3.821,4.367-3.821
			c3.534,0,4.145,3.73,4.17,3.888l0.285,1.872l1.127-1.552c0.061-0.085,1.518-2.056,3.459-1.518
			c1.703,0.472,2.415,2.482,2.625,3.232c-3.41,4.749-8.176,7.83-11.662,9.194c-3.465-1.369-8.501-4.855-11.893-9.541
			c0.398-0.858,1.305-2.383,2.521-2.832c2.075-0.766,3.519,1.285,3.579,1.373l1.104,1.606L515.946,309.315z"/>
	</g>
</g>
<path fill="#E2001A" d="M334.464,292.301c4.947,0.135,9.014,0.567,12.15,1.324c0.404,0.732,0.799,1.478,1.183,2.229
	c0-0.096,0.009-0.176,0.004-0.267c-0.371-0.726-0.75-1.444-1.137-2.149c-3.152-0.759-7.216-1.188-12.157-1.318
	c-1.313-2.495-2.699-4.876-4.156-7.135c-0.059-0.009-0.113-0.016-0.17-0.016C331.68,287.285,333.106,289.73,334.464,292.301z"/>
<g>
	<path fill="#E2001A" d="M342.817,287.177c-0.19-0.285-0.388-0.56-0.589-0.84c-0.165-0.145-0.32-0.289-0.487-0.437
		c0.287,0.4,0.569,0.796,0.848,1.203l0.185,0.26l0.221,0.066L342.817,287.177z"/>
	<path fill="#E2001A" d="M344.834,288.767c-0.834-0.822-1.709-1.631-2.605-2.43c0.201,0.28,0.398,0.555,0.589,0.84
		c-0.07-0.022-0.156-0.051-0.229-0.073c0.065,0.088,0.12,0.165,0.185,0.26c-3.264-1.125-7.44-1.922-12.423-2.379
		c0.963,1.495,1.898,3.051,2.807,4.654c4.287-0.476,8.463-0.517,12.373-0.179C345.307,289.23,345.066,288.993,344.834,288.767z"/>
	<path fill="#E2001A" d="M346.664,293.438c0.387,0.705,0.766,1.424,1.137,2.149c0.019-0.689,0.008-1.354-0.023-1.99
		c-0.039-0.689-0.108-1.347-0.2-1.976c-0.654-0.722-1.335-1.438-2.047-2.161c-3.91-0.338-8.086-0.297-12.373,0.179
		c0.449,0.816,0.905,1.635,1.35,2.48C339.448,292.25,343.512,292.679,346.664,293.438z"/>
</g>
<path fill="#005185" d="M317.539,308.431c0.051,0.026,0.101,0.056,0.147,0.08c-0.344-0.937-0.695-1.865-1.047-2.795
	c-0.036,0.006-0.074,0.012-0.108,0.019C316.874,306.624,317.207,307.526,317.539,308.431z"/>
<path fill="#005185" d="M335.594,294.792c-0.047,0-0.094-0.004-0.14-0.004c3.306,6.574,6.07,13.782,8.082,21.016
	c0.03-0.008,0.064-0.012,0.089-0.021C341.629,308.56,338.88,301.359,335.594,294.792z"/>
<g>
	<path fill="#13235B" d="M324.604,291.718c0.173,0.345,0.352,0.689,0.529,1.039c2.688-0.104,5.217-0.141,7.599-0.107
		c-0.397-0.761-0.801-1.512-1.219-2.249c-2.896-5.206-6.059-9.831-9.389-13.782c0.087,0.012,0.152,0.023,0.231,0.037
		c-0.064-0.07-0.123-0.149-0.181-0.222c0.534,0.072,1.06,0.151,1.578,0.229c-1.373-0.797-2.765-1.566-4.172-2.305
		c-1.567-0.811-3.133-1.591-4.715-2.32c-0.383,0.532-0.788,1.103-1.206,1.717c-0.409,0.596-0.843,1.232-1.288,1.9
		c0.751,0.025,1.497,0.061,2.228,0.099C318.105,280.254,321.472,285.62,324.604,291.718z"/>
	<path fill="#13235B" d="M333.835,294.788c-6.121,0.021-13.175,0.461-21.073,1.304c-0.066,0.007-0.129,0.013-0.188,0.021
		c-0.394-0.888-0.788-1.757-1.187-2.618c-0.947,1.339-1.937,2.717-2.947,4.139c-0.524,0.729-1.051,1.47-1.589,2.22
		c-0.498,0.693-0.997,1.396-1.503,2.111c4.171,2.099,8.246,4.268,12.19,6.466c-0.332-0.904-0.665-1.807-1.008-2.696
		c0.034-0.007,0.072-0.013,0.108-0.019c-0.023-0.058-0.048-0.113-0.066-0.169c7.938-1.139,14.964-1.963,21.004-2.466
		C336.421,300.236,335.172,297.464,333.835,294.788z"/>
	<path fill="#13235B" d="M348.892,314.606c-1.794-6.792-4.339-13.407-7.51-19.589c-1.775-0.131-3.712-0.206-5.788-0.226
		c3.286,6.567,5.988,13.602,7.989,20.825c-0.036,0.006-0.062,0.013-0.099,0.02c0.021,0.055,0.032,0.113,0.052,0.167
		c-0.581,0.125-1.18,0.257-1.779,0.395c2.339,2.129,4.451,4.213,6.295,6.233c0.441-1.416,0.831-2.821,1.175-4.207
		c0.329-1.319,0.622-2.622,0.867-3.895C349.706,314.418,349.302,314.513,348.892,314.606z"/>
</g>
<g>
	<path fill="#13235B" d="M359.463,299.738c-0.409-0.059-0.771-0.264-1.082-0.614l-0.292-0.556v-18.325
		c0.137-1.032,0.673-1.413,1.607-1.14l21.717,15.929v-14.614l0.555-0.935c0.351-0.253,0.74-0.38,1.17-0.38
		c0.778,0.194,1.236,0.682,1.373,1.461v17.712c-0.194,1.228-0.857,1.617-1.987,1.169L361.1,283.663v14.905
		c-0.156,0.409-0.438,0.751-0.848,1.023L359.463,299.738z"/>
	<path fill="#13235B" d="M410.611,299.884c-0.195-0.039-0.395-0.098-0.6-0.175c-0.204-0.078-0.385-0.194-0.541-0.351l-3.565-5.495
		h-14l-3.653,5.611c-0.936,0.546-1.676,0.478-2.222-0.204c-0.156-0.194-0.253-0.399-0.292-0.614c-0.039-0.214-0.039-0.447,0-0.701
		l3.975-6.313c0.234-0.623,0.702-0.877,1.403-0.76l12.772-0.029l-6.284-9.382c-0.351-0.896-0.215-1.588,0.409-2.075
		c0.623-0.526,1.296-0.468,2.017,0.175l11.896,17.8c0.312,0.546,0.331,1.111,0.059,1.695c-0.351,0.391-0.613,0.614-0.789,0.673
		C411.021,299.797,410.825,299.845,410.611,299.884z"/>
	<path fill="#13235B" d="M417.83,299.738c-1.403-0.098-2.562-0.691-3.479-1.783c-0.584-0.779-0.945-1.656-1.081-2.631v-0.993
		c0.233-0.526,0.472-0.867,0.716-1.023c0.243-0.155,0.618-0.204,1.125-0.146c0.761,0.214,1.141,0.604,1.141,1.169
		s0.131,1.052,0.395,1.461c0.263,0.409,0.657,0.692,1.184,0.848h16.075c0.818-0.155,1.539-0.545,2.163-1.169
		c0.253-0.409,0.428-0.867,0.525-1.374v-1.169c-0.039-0.721-0.37-1.334-0.993-1.841c-0.468-0.37-1.014-0.604-1.637-0.702h-14.818
		c-1.812-0.097-3.391-0.818-4.735-2.162c-0.624-0.779-1.004-1.627-1.14-2.543v-1.871c0.194-1.228,0.809-2.309,1.841-3.244
		c1.228-0.877,2.572-1.363,4.034-1.461h15.695c1.383,0.098,2.562,0.613,3.536,1.549c0.877,1.014,1.315,2.221,1.315,3.624
		c-0.039,0.409-0.244,0.771-0.614,1.081c-0.351,0.254-0.789,0.361-1.314,0.322c-0.508-0.234-0.829-0.507-0.965-0.818
		c-0.137-0.312-0.229-0.765-0.277-1.359c-0.049-0.594-0.561-1.038-1.535-1.33H418.97c-0.877,0.117-1.617,0.487-2.222,1.11
		c-0.312,0.508-0.467,1.072-0.467,1.695c0,0.604,0.253,1.121,0.76,1.55c0.564,0.409,1.208,0.662,1.929,0.76h14.936
		c1.695,0.156,3.186,0.906,4.472,2.25c0.779,1.033,1.218,2.192,1.315,3.479v0.994c-0.098,1.656-0.789,3.078-2.075,4.267
		c-1.188,0.877-2.504,1.364-3.946,1.462H417.83z"/>
	<path fill="#13235B" d="M443.083,282.172l-0.906-0.438c-0.156-0.214-0.268-0.438-0.336-0.672c-0.068-0.234-0.083-0.507-0.044-0.818
		c0.312-0.662,0.77-1.042,1.374-1.14h23.674c0.877,0.136,1.335,0.672,1.374,1.607c-0.039,0.215-0.098,0.409-0.176,0.584
		c-0.077,0.176-0.194,0.342-0.351,0.497l-0.789,0.38H443.083z M443.171,299.738c-0.195-0.059-0.386-0.127-0.57-0.205
		c-0.186-0.077-0.355-0.214-0.512-0.409l-0.292-0.556v-10.112c0.194-0.643,0.623-1.032,1.286-1.169h21.512l0.848,0.468
		c0.155,0.214,0.272,0.434,0.351,0.657c0.077,0.225,0.088,0.492,0.029,0.804l-0.38,0.701c-0.156,0.099-0.312,0.186-0.468,0.264
		c-0.156,0.078-0.332,0.146-0.526,0.204h-19.641v6.255h22.096c0.838,0.137,1.276,0.683,1.315,1.637
		c-0.156,0.838-0.643,1.325-1.461,1.462H443.171z"/>
	<path fill="#13235B" d="M473.655,299.738c-1.403-0.098-2.562-0.691-3.479-1.783c-0.584-0.779-0.945-1.656-1.081-2.631v-0.993
		c0.233-0.526,0.472-0.867,0.716-1.023c0.243-0.155,0.618-0.204,1.125-0.146c0.761,0.214,1.141,0.604,1.141,1.169
		s0.131,1.052,0.395,1.461c0.263,0.409,0.657,0.692,1.184,0.848h16.075c0.818-0.155,1.539-0.545,2.163-1.169
		c0.253-0.409,0.428-0.867,0.525-1.374v-1.169c-0.039-0.721-0.37-1.334-0.993-1.841c-0.468-0.37-1.014-0.604-1.637-0.702h-14.818
		c-1.812-0.097-3.391-0.818-4.735-2.162c-0.624-0.779-1.004-1.627-1.14-2.543v-1.871c0.194-1.228,0.809-2.309,1.841-3.244
		c1.228-0.877,2.572-1.363,4.034-1.461h15.695c1.383,0.098,2.562,0.613,3.536,1.549c0.877,1.014,1.315,2.221,1.315,3.624
		c-0.039,0.409-0.244,0.771-0.614,1.081c-0.351,0.254-0.789,0.361-1.314,0.322c-0.508-0.234-0.829-0.507-0.965-0.818
		c-0.137-0.312-0.229-0.765-0.277-1.359c-0.049-0.594-0.561-1.038-1.535-1.33h-16.017c-0.877,0.117-1.617,0.487-2.222,1.11
		c-0.312,0.508-0.467,1.072-0.467,1.695c0,0.604,0.253,1.121,0.76,1.55c0.564,0.409,1.208,0.662,1.929,0.76h14.936
		c1.695,0.156,3.186,0.906,4.472,2.25c0.779,1.033,1.218,2.192,1.315,3.479v0.994c-0.098,1.656-0.789,3.078-2.075,4.267
		c-1.188,0.877-2.504,1.364-3.946,1.462H473.655z"/>
</g>
<g>
	<path fill="#13235B" d="M359.104,304.402l2.311,3.714h0.015v-3.714h1.14v5.536h-1.217l-2.303-3.706h-0.016v3.706h-1.14v-5.536
		H359.104z"/>
	<path fill="#13235B" d="M366.4,304.402l2.07,5.536h-1.264l-0.419-1.233h-2.07l-0.434,1.233h-1.225l2.093-5.536H366.4z
		 M366.47,307.799l-0.698-2.031h-0.015l-0.721,2.031H366.47z M365.175,303.906l0.744-1.102h1.217l-1.194,1.102H365.175z"/>
	<path fill="#13235B" d="M371.936,304.402c0.248,0,0.472,0.041,0.671,0.121c0.199,0.08,0.369,0.189,0.512,0.328
		c0.142,0.141,0.25,0.302,0.325,0.485c0.075,0.184,0.113,0.382,0.113,0.593c0,0.326-0.069,0.607-0.206,0.846
		c-0.137,0.237-0.36,0.418-0.671,0.543v0.016c0.15,0.041,0.274,0.104,0.373,0.189c0.098,0.085,0.178,0.186,0.24,0.303
		c0.062,0.115,0.107,0.244,0.136,0.383c0.028,0.141,0.047,0.279,0.058,0.419c0.005,0.089,0.01,0.191,0.016,0.311
		c0.005,0.118,0.014,0.24,0.027,0.364s0.034,0.242,0.062,0.353c0.028,0.111,0.071,0.206,0.128,0.283h-1.217
		c-0.067-0.176-0.108-0.385-0.124-0.628s-0.039-0.476-0.07-0.697c-0.042-0.29-0.129-0.502-0.264-0.637s-0.354-0.201-0.659-0.201
		h-1.217v2.163h-1.217v-5.536H371.936z M371.502,306.906c0.279,0,0.488-0.062,0.628-0.186s0.209-0.326,0.209-0.604
		c0-0.269-0.07-0.464-0.209-0.585c-0.14-0.122-0.349-0.183-0.628-0.183h-1.333v1.558H371.502z"/>
	<path fill="#13235B" d="M374.494,306.043c0.125-0.354,0.303-0.664,0.535-0.928c0.233-0.264,0.518-0.47,0.857-0.619
		c0.338-0.15,0.72-0.225,1.144-0.225c0.429,0,0.812,0.074,1.147,0.225c0.336,0.149,0.62,0.355,0.853,0.619
		c0.232,0.264,0.411,0.573,0.535,0.928c0.124,0.354,0.186,0.737,0.186,1.15c0,0.404-0.062,0.779-0.186,1.129
		c-0.124,0.349-0.302,0.652-0.535,0.91c-0.233,0.259-0.517,0.462-0.853,0.609c-0.336,0.146-0.719,0.221-1.147,0.221
		c-0.424,0-0.805-0.074-1.144-0.221c-0.339-0.147-0.624-0.351-0.857-0.609c-0.232-0.258-0.411-0.562-0.535-0.91
		c-0.124-0.35-0.186-0.725-0.186-1.129C374.308,306.78,374.37,306.396,374.494,306.043z M375.607,307.872
		c0.054,0.22,0.141,0.417,0.26,0.593c0.119,0.176,0.274,0.317,0.465,0.423c0.191,0.106,0.424,0.159,0.698,0.159
		s0.506-0.053,0.698-0.159c0.191-0.105,0.346-0.247,0.465-0.423c0.119-0.176,0.206-0.373,0.26-0.593s0.081-0.446,0.081-0.679
		c0-0.242-0.027-0.478-0.081-0.705s-0.141-0.43-0.26-0.609c-0.119-0.178-0.274-0.32-0.465-0.426s-0.424-0.158-0.698-0.158
		s-0.507,0.053-0.698,0.158c-0.191,0.105-0.347,0.248-0.465,0.426c-0.119,0.18-0.206,0.382-0.26,0.609s-0.082,0.463-0.082,0.705
		C375.525,307.426,375.553,307.652,375.607,307.872z"/>
	<path fill="#13235B" d="M382.969,304.402c0.357,0,0.689,0.057,0.997,0.171c0.307,0.114,0.574,0.284,0.798,0.512
		c0.225,0.228,0.401,0.512,0.527,0.853c0.126,0.342,0.19,0.742,0.19,1.202c0,0.403-0.052,0.775-0.155,1.116
		c-0.104,0.342-0.26,0.636-0.469,0.884c-0.209,0.249-0.471,0.443-0.783,0.585c-0.313,0.143-0.681,0.214-1.105,0.214h-2.388v-5.536
		H382.969z M382.884,308.915c0.175,0,0.346-0.028,0.512-0.085c0.165-0.057,0.312-0.151,0.442-0.283
		c0.129-0.132,0.232-0.304,0.31-0.516s0.116-0.471,0.116-0.775c0-0.279-0.027-0.531-0.082-0.756
		c-0.054-0.225-0.143-0.418-0.267-0.578s-0.289-0.283-0.493-0.368s-0.456-0.128-0.756-0.128h-0.868v3.489H382.884z"/>
	<path fill="#13235B" d="M387.536,304.402l2.311,3.714h0.015v-3.714h1.14v5.536h-1.217l-2.303-3.706h-0.016v3.706h-1.14v-5.536
		H387.536z"/>
	<path fill="#13235B" d="M394.832,304.402l2.07,5.536h-1.264l-0.419-1.233h-2.07l-0.434,1.233h-1.225l2.093-5.536H394.832z
		 M394.901,307.799l-0.698-2.031h-0.015l-0.721,2.031H394.901z M393.606,303.906l0.744-1.102h1.217l-1.194,1.102H393.606z"/>
	<path fill="#13235B" d="M402.298,304.402l2.07,5.536h-1.264l-0.419-1.233h-2.07l-0.434,1.233h-1.225l2.093-5.536H402.298z
		 M402.367,307.799l-0.698-2.031h-0.015l-0.721,2.031H402.367z"/>
	<path fill="#13235B" d="M408.128,309.896c-0.263,0.11-0.53,0.166-0.798,0.166c-0.424,0-0.805-0.074-1.144-0.221
		c-0.339-0.147-0.624-0.351-0.857-0.609c-0.232-0.258-0.411-0.562-0.535-0.91c-0.124-0.35-0.186-0.725-0.186-1.129
		c0-0.413,0.062-0.797,0.186-1.15c0.125-0.354,0.303-0.664,0.535-0.928c0.233-0.264,0.518-0.47,0.857-0.619
		c0.338-0.15,0.72-0.225,1.144-0.225c0.284,0,0.56,0.042,0.826,0.127c0.266,0.086,0.506,0.211,0.721,0.377
		c0.214,0.165,0.392,0.369,0.531,0.611c0.14,0.244,0.225,0.522,0.256,0.838H408.5c-0.073-0.311-0.212-0.543-0.419-0.697
		c-0.207-0.156-0.458-0.232-0.752-0.232c-0.274,0-0.507,0.053-0.698,0.158c-0.191,0.105-0.347,0.248-0.465,0.426
		c-0.119,0.18-0.206,0.382-0.26,0.609s-0.082,0.463-0.082,0.705c0,0.232,0.027,0.459,0.082,0.679s0.141,0.417,0.26,0.593
		c0.119,0.176,0.274,0.317,0.465,0.423c0.191,0.106,0.424,0.159,0.698,0.159c0.403,0,0.714-0.102,0.934-0.307
		c0.22-0.203,0.348-0.5,0.384-0.887h-1.225v-0.908h2.326v2.993h-0.775l-0.124-0.628C408.632,309.59,408.392,309.785,408.128,309.896
		z"/>
	<path fill="#13235B" d="M414.874,304.402v1.023h-2.923v1.187h2.683v0.946h-2.683v1.356h2.985v1.023h-4.202v-5.536H414.874z"/>
	<path fill="#13235B" d="M416.967,304.402l2.311,3.714h0.015v-3.714h1.14v5.536h-1.217l-2.303-3.706h-0.016v3.706h-1.14v-5.536
		H416.967z"/>
	<path fill="#13235B" d="M421.068,305.426v-1.023h4.535v1.023h-1.658v4.513h-1.218v-4.513H421.068z"/>
	<path fill="#13235B" d="M430.311,309.516c-0.419,0.365-0.998,0.547-1.737,0.547c-0.749,0-1.329-0.181-1.741-0.543
		c-0.41-0.361-0.615-0.92-0.615-1.674v-3.443h1.217v3.443c0,0.149,0.013,0.297,0.039,0.441c0.025,0.145,0.08,0.272,0.162,0.384
		c0.083,0.111,0.198,0.202,0.346,0.271c0.146,0.069,0.345,0.104,0.593,0.104c0.435,0,0.733-0.098,0.899-0.291
		s0.248-0.497,0.248-0.91v-3.443h1.217v3.443C430.938,308.595,430.729,309.151,430.311,309.516z M427.992,303.906l0.744-1.102h1.217
		l-1.193,1.102H427.992z"/>
	<path fill="#13235B" d="M434.97,304.402c0.248,0,0.472,0.041,0.671,0.121s0.369,0.189,0.512,0.328
		c0.143,0.141,0.25,0.302,0.325,0.485s0.112,0.382,0.112,0.593c0,0.326-0.068,0.607-0.205,0.846
		c-0.137,0.237-0.36,0.418-0.671,0.543v0.016c0.149,0.041,0.274,0.104,0.372,0.189c0.099,0.085,0.179,0.186,0.24,0.303
		c0.062,0.115,0.107,0.244,0.137,0.383c0.027,0.141,0.047,0.279,0.058,0.419c0.005,0.089,0.011,0.191,0.016,0.311
		c0.005,0.118,0.015,0.24,0.026,0.364c0.014,0.124,0.034,0.242,0.062,0.353c0.028,0.111,0.071,0.206,0.128,0.283h-1.218
		c-0.066-0.176-0.107-0.385-0.123-0.628s-0.039-0.476-0.07-0.697c-0.041-0.29-0.129-0.502-0.264-0.637s-0.354-0.201-0.658-0.201
		h-1.218v2.163h-1.218v-5.536H434.97z M434.535,306.906c0.279,0,0.488-0.062,0.629-0.186c0.139-0.124,0.209-0.326,0.209-0.604
		c0-0.269-0.07-0.464-0.209-0.585c-0.141-0.122-0.35-0.183-0.629-0.183h-1.333v1.558H434.535z"/>
	<path fill="#13235B" d="M440.343,304.402l2.069,5.536h-1.264l-0.418-1.233h-2.07l-0.434,1.233h-1.226l2.093-5.536H440.343z
		 M440.412,307.799l-0.697-2.031h-0.016l-0.721,2.031H440.412z"/>
	<path fill="#13235B" d="M447.545,304.402c0.347,0,0.641,0.051,0.885,0.151c0.242,0.101,0.439,0.233,0.593,0.399
		c0.152,0.166,0.263,0.354,0.333,0.566c0.07,0.211,0.105,0.432,0.105,0.658c0,0.223-0.035,0.441-0.105,0.655
		c-0.07,0.215-0.181,0.405-0.333,0.57c-0.153,0.165-0.351,0.298-0.593,0.399c-0.244,0.101-0.538,0.15-0.885,0.15h-1.279v1.985
		h-1.217v-5.536H447.545z M447.212,307.008c0.14,0,0.274-0.01,0.403-0.031c0.129-0.021,0.242-0.061,0.341-0.12
		s0.177-0.144,0.237-0.252c0.059-0.108,0.088-0.251,0.088-0.427s-0.029-0.317-0.088-0.426c-0.061-0.109-0.139-0.193-0.237-0.252
		c-0.099-0.06-0.212-0.1-0.341-0.121c-0.129-0.02-0.264-0.03-0.403-0.03h-0.946v1.659H447.212z"/>
	<path fill="#13235B" d="M453.205,304.402c0.248,0,0.472,0.041,0.671,0.121c0.198,0.08,0.369,0.189,0.512,0.328
		c0.142,0.141,0.251,0.302,0.325,0.485c0.075,0.184,0.113,0.382,0.113,0.593c0,0.326-0.069,0.607-0.206,0.846
		c-0.138,0.237-0.36,0.418-0.671,0.543v0.016c0.15,0.041,0.273,0.104,0.373,0.189c0.098,0.085,0.178,0.186,0.24,0.303
		c0.062,0.115,0.106,0.244,0.135,0.383c0.029,0.141,0.048,0.279,0.059,0.419c0.005,0.089,0.01,0.191,0.016,0.311
		c0.005,0.118,0.014,0.24,0.027,0.364c0.012,0.124,0.033,0.242,0.062,0.353c0.028,0.111,0.071,0.206,0.128,0.283h-1.217
		c-0.068-0.176-0.109-0.385-0.125-0.628s-0.038-0.476-0.069-0.697c-0.042-0.29-0.13-0.502-0.264-0.637s-0.354-0.201-0.659-0.201
		h-1.217v2.163h-1.217v-5.536H453.205z M452.771,306.906c0.278,0,0.488-0.062,0.627-0.186c0.141-0.124,0.21-0.326,0.21-0.604
		c0-0.269-0.069-0.464-0.21-0.585c-0.139-0.122-0.349-0.183-0.627-0.183h-1.334v1.558H452.771z"/>
	<path fill="#13235B" d="M459.958,304.402v1.023h-2.923v1.187h2.683v0.946h-2.683v1.356h2.984v1.023h-4.201v-5.536H459.958z"/>
	<path fill="#13235B" d="M463.928,308.574c0.066,0.129,0.156,0.233,0.268,0.313c0.11,0.081,0.241,0.14,0.391,0.179
		c0.15,0.039,0.305,0.059,0.466,0.059c0.108,0,0.225-0.01,0.349-0.027c0.124-0.019,0.24-0.053,0.35-0.105
		c0.107-0.051,0.198-0.123,0.271-0.213c0.073-0.09,0.108-0.205,0.108-0.346c0-0.148-0.047-0.271-0.143-0.363
		c-0.096-0.094-0.222-0.171-0.377-0.232c-0.154-0.062-0.33-0.117-0.527-0.164c-0.195-0.046-0.395-0.098-0.597-0.154
		c-0.206-0.052-0.408-0.115-0.604-0.189c-0.197-0.076-0.372-0.172-0.527-0.291s-0.28-0.268-0.376-0.446s-0.144-0.394-0.144-0.647
		c0-0.284,0.061-0.531,0.182-0.74c0.122-0.209,0.281-0.384,0.478-0.523s0.419-0.242,0.667-0.311c0.248-0.066,0.496-0.1,0.744-0.1
		c0.289,0,0.567,0.031,0.834,0.096c0.266,0.064,0.502,0.17,0.709,0.314s0.371,0.33,0.492,0.555s0.182,0.497,0.182,0.818h-1.178
		c-0.011-0.166-0.045-0.303-0.105-0.412c-0.059-0.107-0.138-0.193-0.236-0.256c-0.098-0.062-0.21-0.105-0.337-0.131
		c-0.126-0.026-0.265-0.039-0.415-0.039c-0.098,0-0.196,0.01-0.295,0.031c-0.098,0.021-0.188,0.057-0.268,0.108
		s-0.146,0.116-0.197,0.194c-0.051,0.076-0.077,0.176-0.077,0.294c0,0.108,0.021,0.196,0.062,0.264s0.123,0.13,0.244,0.187
		c0.122,0.057,0.29,0.113,0.504,0.17c0.215,0.057,0.496,0.129,0.842,0.217c0.104,0.021,0.246,0.059,0.43,0.113
		c0.184,0.054,0.366,0.141,0.547,0.26c0.182,0.119,0.338,0.277,0.469,0.477c0.133,0.199,0.198,0.453,0.198,0.764
		c0,0.253-0.049,0.488-0.147,0.705c-0.098,0.217-0.244,0.404-0.438,0.562c-0.194,0.158-0.435,0.28-0.721,0.368
		c-0.287,0.088-0.619,0.132-0.997,0.132c-0.305,0-0.601-0.037-0.888-0.112s-0.54-0.192-0.76-0.353s-0.395-0.365-0.523-0.613
		s-0.191-0.543-0.186-0.883h1.178C463.826,308.287,463.859,308.445,463.928,308.574z"/>
	<path fill="#13235B" d="M469.246,304.402v5.536h-1.217v-5.536H469.246z"/>
	<path fill="#13235B" d="M474.456,304.402v1.023h-2.923v1.187h2.683v0.946h-2.683v1.356h2.984v1.023h-4.201v-5.536H474.456z"/>
	<path fill="#13235B" d="M476.564,305.426h-1.659v-1.023h4.536v1.023h-1.659v4.513h-1.218V305.426z M477.674,303.898h-1.008
		l-0.854-1.101h0.892l0.481,0.628l0.496-0.628h0.853L477.674,303.898z"/>
	<path fill="#13235B" d="M480.022,306.043c0.124-0.354,0.303-0.664,0.535-0.928c0.233-0.264,0.519-0.47,0.856-0.619
		c0.339-0.15,0.721-0.225,1.145-0.225c0.428,0,0.811,0.074,1.146,0.225c0.336,0.149,0.621,0.355,0.854,0.619s0.41,0.573,0.535,0.928
		c0.123,0.354,0.186,0.737,0.186,1.15c0,0.404-0.062,0.779-0.186,1.129c-0.125,0.349-0.303,0.652-0.535,0.91
		c-0.232,0.259-0.518,0.462-0.854,0.609c-0.336,0.146-0.719,0.221-1.146,0.221c-0.424,0-0.806-0.074-1.145-0.221
		c-0.338-0.147-0.623-0.351-0.856-0.609c-0.232-0.258-0.411-0.562-0.535-0.91c-0.124-0.35-0.187-0.725-0.187-1.129
		C479.836,306.78,479.898,306.396,480.022,306.043z M481.135,307.872c0.055,0.22,0.141,0.417,0.26,0.593s0.274,0.317,0.466,0.423
		c0.19,0.106,0.424,0.159,0.698,0.159c0.273,0,0.506-0.053,0.697-0.159c0.191-0.105,0.346-0.247,0.465-0.423s0.206-0.373,0.26-0.593
		c0.055-0.22,0.082-0.446,0.082-0.679c0-0.242-0.027-0.478-0.082-0.705c-0.054-0.228-0.141-0.43-0.26-0.609
		c-0.119-0.178-0.273-0.32-0.465-0.426s-0.424-0.158-0.697-0.158c-0.274,0-0.508,0.053-0.698,0.158
		c-0.191,0.105-0.347,0.248-0.466,0.426c-0.119,0.18-0.205,0.382-0.26,0.609c-0.054,0.228-0.081,0.463-0.081,0.705
		C481.054,307.426,481.081,307.652,481.135,307.872z"/>
	<path fill="#13235B" d="M487.311,309.938l-1.791-5.536h1.248l1.233,3.893h0.016l1.248-3.893h1.257l-1.838,5.536H487.311z"/>
	<path fill="#13235B" d="M495.135,304.402v1.023h-2.924v1.187h2.684v0.946h-2.684v1.356h2.985v1.023h-4.202v-5.536H495.135z
		 M492.39,303.906l0.744-1.102h1.218l-1.194,1.102H492.39z"/>
	<path fill="#13235B" d="M360.655,313.707l2.07,5.535h-1.264l-0.419-1.232h-2.07l-0.434,1.232h-1.225l2.093-5.535H360.655z
		 M360.725,317.103l-0.698-2.031h-0.015l-0.721,2.031H360.725z"/>
	<path fill="#13235B" d="M369.501,313.707v1.023h-2.923v1.186h2.683v0.946h-2.683v1.356h2.985v1.023h-4.202v-5.535H369.501z"/>
	<path fill="#13235B" d="M371.603,313.707v4.512h2.698v1.023h-3.916v-5.535H371.603z"/>
	<path fill="#13235B" d="M379.123,313.707v1.023H376.2v1.186h2.683v0.946H376.2v1.356h2.985v1.023h-4.202v-5.535H379.123z"/>
	<path fill="#13235B" d="M381.224,313.707v2.295l2.163-2.295h1.52l-2.163,2.186l2.373,3.35h-1.527l-1.667-2.488l-0.698,0.705v1.783
		h-1.217v-5.535H381.224z"/>
	<path fill="#13235B" d="M385.17,314.73v-1.023h4.536v1.023h-1.659v4.512h-1.217v-4.512H385.17z"/>
	<path fill="#13235B" d="M393.327,313.707c0.248,0,0.472,0.04,0.671,0.12c0.199,0.08,0.369,0.19,0.512,0.329
		c0.142,0.14,0.25,0.301,0.325,0.484c0.075,0.184,0.113,0.382,0.113,0.594c0,0.326-0.069,0.607-0.206,0.845
		c-0.137,0.237-0.36,0.419-0.671,0.543v0.016c0.15,0.042,0.274,0.104,0.373,0.19c0.098,0.084,0.178,0.186,0.24,0.302
		s0.107,0.244,0.136,0.384c0.028,0.14,0.047,0.279,0.058,0.418c0.005,0.089,0.01,0.191,0.016,0.311
		c0.005,0.119,0.014,0.24,0.027,0.365c0.013,0.123,0.034,0.241,0.062,0.352c0.028,0.111,0.071,0.206,0.128,0.283h-1.217
		c-0.067-0.176-0.108-0.385-0.124-0.627c-0.016-0.244-0.039-0.477-0.07-0.698c-0.042-0.29-0.129-0.501-0.264-0.636
		s-0.354-0.201-0.659-0.201h-1.217v2.162h-1.217v-5.535H393.327z M392.893,316.211c0.279,0,0.488-0.062,0.628-0.186
		c0.14-0.125,0.209-0.326,0.209-0.605c0-0.269-0.07-0.463-0.209-0.585s-0.349-0.183-0.628-0.183h-1.333v1.559H392.893z"/>
	<path fill="#13235B" d="M395.885,315.347c0.125-0.354,0.303-0.663,0.535-0.927c0.233-0.264,0.518-0.471,0.857-0.62
		c0.338-0.149,0.72-0.225,1.144-0.225c0.429,0,0.812,0.075,1.147,0.225s0.62,0.356,0.853,0.62c0.232,0.264,0.411,0.572,0.535,0.927
		s0.186,0.737,0.186,1.151c0,0.403-0.062,0.779-0.186,1.128s-0.302,0.653-0.535,0.911c-0.233,0.258-0.517,0.461-0.853,0.609
		c-0.336,0.146-0.719,0.221-1.147,0.221c-0.424,0-0.805-0.074-1.144-0.221c-0.339-0.148-0.624-0.352-0.857-0.609
		c-0.232-0.258-0.411-0.562-0.535-0.911c-0.124-0.349-0.186-0.725-0.186-1.128C395.699,316.084,395.761,315.701,395.885,315.347z
		 M396.998,317.176c0.054,0.221,0.141,0.418,0.26,0.594c0.119,0.176,0.274,0.316,0.465,0.422c0.191,0.107,0.424,0.16,0.698,0.16
		s0.506-0.053,0.698-0.16c0.191-0.105,0.346-0.246,0.465-0.422c0.119-0.176,0.206-0.373,0.26-0.594
		c0.054-0.219,0.081-0.445,0.081-0.678c0-0.243-0.027-0.479-0.081-0.705c-0.054-0.229-0.141-0.431-0.26-0.609
		c-0.119-0.178-0.274-0.32-0.465-0.426c-0.191-0.106-0.424-0.159-0.698-0.159s-0.507,0.053-0.698,0.159
		c-0.191,0.105-0.347,0.248-0.465,0.426c-0.119,0.179-0.206,0.381-0.26,0.609c-0.054,0.227-0.082,0.462-0.082,0.705
		C396.916,316.73,396.943,316.957,396.998,317.176z"/>
	<path fill="#13235B" d="M403.181,313.707l2.311,3.713h0.015v-3.713h1.14v5.535h-1.217l-2.303-3.705h-0.016v3.705h-1.14v-5.535
		H403.181z"/>
	<path fill="#13235B" d="M408.934,313.707v5.535h-1.217v-5.535H408.934z"/>
	<path fill="#13235B" d="M413.555,315.184c-0.072-0.116-0.163-0.219-0.271-0.307c-0.108-0.088-0.231-0.156-0.368-0.205
		c-0.137-0.049-0.28-0.073-0.43-0.073c-0.274,0-0.507,0.053-0.698,0.159c-0.191,0.105-0.347,0.248-0.465,0.426
		c-0.119,0.179-0.206,0.381-0.26,0.609c-0.054,0.227-0.082,0.462-0.082,0.705c0,0.232,0.027,0.459,0.082,0.678
		c0.054,0.221,0.141,0.418,0.26,0.594c0.119,0.176,0.274,0.316,0.465,0.422c0.191,0.107,0.424,0.16,0.698,0.16
		c0.372,0,0.663-0.114,0.872-0.342c0.209-0.227,0.337-0.527,0.384-0.899h1.179c-0.031,0.347-0.111,0.659-0.24,0.938
		c-0.129,0.279-0.3,0.517-0.512,0.713c-0.212,0.197-0.46,0.347-0.745,0.449c-0.284,0.104-0.597,0.156-0.938,0.156
		c-0.424,0-0.805-0.074-1.144-0.221c-0.339-0.148-0.624-0.352-0.857-0.609c-0.232-0.258-0.411-0.562-0.535-0.911
		c-0.124-0.349-0.186-0.725-0.186-1.128c0-0.414,0.062-0.797,0.186-1.151c0.125-0.354,0.303-0.663,0.535-0.927
		c0.233-0.264,0.518-0.471,0.857-0.62c0.338-0.149,0.72-0.225,1.144-0.225c0.305,0,0.593,0.044,0.864,0.132
		c0.271,0.088,0.515,0.216,0.729,0.383c0.214,0.169,0.392,0.377,0.531,0.625s0.227,0.532,0.264,0.853h-1.179
		C413.674,315.428,413.627,315.301,413.555,315.184z"/>
	<path fill="#13235B" d="M416.966,313.707v2.295l2.163-2.295h1.52l-2.163,2.186l2.373,3.35h-1.527l-1.667-2.488l-0.698,0.705v1.783
		h-1.217v-5.535H416.966z"/>
	<path fill="#13235B" d="M425.486,313.707v1.023h-2.922v1.186h2.682v0.946h-2.682v1.356h2.984v1.023h-4.202v-5.535H425.486z
		 M422.742,313.211l0.744-1.102h1.217l-1.193,1.102H422.742z"/>
	<path fill="#13235B" d="M429.456,317.878c0.067,0.13,0.156,0.233,0.268,0.313c0.11,0.081,0.241,0.141,0.392,0.18
		c0.15,0.038,0.305,0.058,0.465,0.058c0.109,0,0.225-0.009,0.35-0.027c0.123-0.019,0.24-0.053,0.349-0.104s0.198-0.123,0.271-0.213
		c0.073-0.091,0.109-0.206,0.109-0.346c0-0.149-0.048-0.271-0.144-0.364s-0.222-0.171-0.376-0.232
		c-0.155-0.062-0.331-0.116-0.527-0.163s-0.396-0.098-0.598-0.154c-0.206-0.053-0.408-0.115-0.604-0.19
		c-0.197-0.075-0.373-0.172-0.527-0.291c-0.156-0.118-0.281-0.268-0.377-0.446c-0.096-0.178-0.143-0.394-0.143-0.646
		c0-0.285,0.061-0.531,0.182-0.74c0.121-0.21,0.28-0.385,0.477-0.523c0.197-0.141,0.419-0.243,0.667-0.311
		c0.249-0.067,0.497-0.101,0.745-0.101c0.289,0,0.566,0.032,0.833,0.097s0.503,0.17,0.71,0.314c0.206,0.145,0.37,0.329,0.492,0.554
		c0.121,0.226,0.182,0.497,0.182,0.818h-1.178c-0.012-0.165-0.046-0.303-0.105-0.411s-0.139-0.193-0.236-0.256
		s-0.211-0.105-0.338-0.132c-0.126-0.026-0.264-0.038-0.414-0.038c-0.099,0-0.197,0.01-0.295,0.03s-0.188,0.058-0.268,0.108
		c-0.08,0.053-0.146,0.117-0.197,0.194c-0.052,0.077-0.078,0.176-0.078,0.294c0,0.109,0.021,0.197,0.062,0.264
		c0.041,0.068,0.123,0.13,0.244,0.187c0.121,0.058,0.289,0.114,0.504,0.171s0.495,0.129,0.842,0.217
		c0.104,0.021,0.246,0.059,0.43,0.112s0.365,0.142,0.547,0.26c0.181,0.119,0.337,0.278,0.469,0.478
		c0.132,0.198,0.197,0.453,0.197,0.764c0,0.252-0.049,0.488-0.146,0.705c-0.099,0.217-0.244,0.404-0.438,0.562
		c-0.194,0.157-0.435,0.279-0.721,0.367c-0.287,0.088-0.619,0.133-0.997,0.133c-0.305,0-0.6-0.038-0.887-0.113
		c-0.287-0.074-0.541-0.191-0.76-0.353c-0.221-0.16-0.395-0.364-0.523-0.612c-0.13-0.248-0.191-0.543-0.187-0.884h1.179
		C429.355,317.592,429.389,317.749,429.456,317.878z"/>
	<path fill="#13235B" d="M434.775,313.707v4.512h2.697v1.023h-3.915v-5.535H434.775z"/>
	<path fill="#13235B" d="M442.226,318.82c-0.419,0.364-0.997,0.547-1.737,0.547c-0.749,0-1.329-0.182-1.74-0.543
		c-0.41-0.361-0.616-0.92-0.616-1.675v-3.442h1.218v3.442c0,0.149,0.012,0.298,0.038,0.442s0.08,0.271,0.163,0.383
		c0.082,0.111,0.197,0.202,0.345,0.271c0.147,0.07,0.345,0.105,0.593,0.105c0.435,0,0.734-0.098,0.9-0.291
		c0.165-0.194,0.248-0.498,0.248-0.911v-3.442h1.217v3.442C442.854,317.898,442.645,318.455,442.226,318.82z"/>
	<path fill="#13235B" d="M446.514,314.73h-2.737v-1.023h4.357v0.961l-2.97,3.551h3.047v1.023h-4.668v-0.961L446.514,314.73z
		 M445.381,313.211l-0.86-1.102h0.868l0.496,0.629l0.504-0.629h0.854l-0.854,1.102H445.381z"/>
	<path fill="#13235B" d="M451.529,313.707c0.264,0,0.504,0.023,0.721,0.069c0.217,0.047,0.403,0.123,0.559,0.229
		c0.155,0.105,0.275,0.246,0.36,0.422s0.128,0.393,0.128,0.651c0,0.279-0.062,0.512-0.189,0.698
		c-0.127,0.186-0.314,0.338-0.562,0.457c0.342,0.098,0.596,0.27,0.764,0.516s0.252,0.541,0.252,0.888
		c0,0.279-0.055,0.521-0.162,0.726c-0.109,0.203-0.256,0.37-0.438,0.5c-0.184,0.129-0.394,0.225-0.628,0.286
		c-0.235,0.062-0.477,0.093-0.725,0.093h-2.684v-5.535H451.529z M451.374,315.947c0.218,0,0.396-0.051,0.535-0.154
		s0.21-0.271,0.21-0.504c0-0.13-0.023-0.236-0.07-0.318s-0.108-0.147-0.186-0.193c-0.078-0.047-0.168-0.08-0.268-0.098
		c-0.102-0.018-0.206-0.027-0.314-0.027h-1.14v1.295H451.374z M451.443,318.297c0.119,0,0.233-0.012,0.342-0.035
		s0.204-0.062,0.287-0.116c0.082-0.054,0.148-0.128,0.197-0.221s0.074-0.212,0.074-0.356c0-0.285-0.08-0.487-0.24-0.609
		c-0.16-0.121-0.373-0.182-0.637-0.182h-1.325v1.52H451.443z"/>
	<path fill="#13235B" d="M453.785,313.707h1.365l1.295,2.186l1.287-2.186h1.356l-2.055,3.411v2.124h-1.218v-2.154L453.785,313.707z"
		/>
</g>
</svg>
